<mxfile host="app.diagrams.net" modified="2024-02-04T02:53:56.362Z" agent="Mozilla/5.0 (Windows NT 10.0; Win64; x64) AppleWebKit/537.36 (KHTML, like Gecko) Chrome/121.0.0.0 Safari/537.36 Edg/121.0.0.0" version="21.7.4" etag="Yjw6Xnt5dyi7dz3zlxVd" type="github">
  <diagram name="Page-1" id="dsfR5To0Agb3owidR8rJ">
    <mxGraphModel>
      <root>
        <mxCell id="0" />
        <mxCell id="1" parent="0" />
      </root>
    </mxGraphModel>
  </diagram>
</mxfile>
